<?xml version="1.0" encoding="utf-8"?>
<!-- Generator: Adobe Illustrator 16.0.0, SVG Export Plug-In . SVG Version: 6.00 Build 0)  -->
<!DOCTYPE svg PUBLIC "-//W3C//DTD SVG 1.1//EN" "http://www.w3.org/Graphics/SVG/1.1/DTD/svg11.dtd">
<svg version="1.1" id="图层_1" xmlns="http://www.w3.org/2000/svg" xmlns:xlink="http://www.w3.org/1999/xlink" x="0px" y="0px"
	 width="123px" height="141px" viewBox="0 0 123 141" enable-background="new 0 0 123 141" xml:space="preserve">
<g id="图层_1_1_" display="none">
	
		<image display="inline" overflow="visible" enable-background="new    " width="1787" height="2106" xlink:href="C6086B94.jpeg"  transform="matrix(0.3144 0 0 0.3134 25.041 65.9878)">
	</image>
</g>
<g id="图层_2">
	<g>
		<g>
			<path fill="#FEFEFE" d="M132.607,3.192c0.305,0,0.39,0.042,0.39,0.375"/>
			<path fill="#FEFEFE" d="M-7.406,3.568c0-0.332,0.081-0.376,0.389-0.376"/>
			<path fill="#FC9600" d="M31.865,79.641c0.197-0.688,0.716-1.174,1.102-1.744c0.446-0.666,0.931-1.311,1.385-1.977
				c0.856-1.256,1.551-2.602,2.292-3.918c0.327-0.576,0.557-1.211,0.832-1.815c0.418-0.913,0.773-1.849,1.114-2.789
				c0.269-0.742,0.521-1.503,0.694-2.271c0.134-0.588,0.279-1.172,0.444-1.75c-0.091-0.224,0.021-0.423,0.079-0.627
				c0.005-0.043,0.007-0.085,0.01-0.129c0.071-0.131-0.007-0.287,0.064-0.418c0.123-0.65,0.237-1.303,0.375-1.95
				c0.039-0.183,0.052-0.355,0.033-0.535c0.07-0.133-0.008-0.289,0.063-0.423c0.005-0.738,0.007-1.481,0.019-2.223
				c0.002-0.096-0.078-0.26,0.111-0.273c0.139-0.01,0.214,0.113,0.242,0.218c0.123,0.489,0.445,0.906,0.507,1.415
				c0.097,0.117,0.098,0.265,0.142,0.401l-0.004-0.007c0.119,0.225,0.105,0.479,0.164,0.718c-0.033,0.141,0.052,0.257,0.089,0.382
				c0.076,0.159-0.014,0.338,0.064,0.495c-0.023,0.276-0.031,0.548,0.077,0.81c-0.054,0.412-0.051,0.826,0,1.238
				c-0.023,0.189-0.162,0.379,0,0.568c-0.051,0.412-0.054,0.825,0,1.235c-0.148,0.292-0.055,0.61-0.103,0.911
				c-0.063,0.391-0.139,0.778-0.208,1.167c-0.051,0.376-0.115,0.75-0.225,1.114c-0.266,0.938-0.531,1.875-0.799,2.81
				c-0.028,0.207-0.112,0.391-0.213,0.567c-0.382,0.866-0.667,1.776-1.202,2.565c-0.566,0.83-1.193,1.625-1.604,2.543
				c-0.337,0.756-0.689,1.549-0.357,2.418c0.207,0.539,0.542,0.975,1.104,1.176c0.287,0.104,0.499,0.396,0.848,0.342
				c0.304,0.057,0.607,0.055,0.909,0.004c0.437-0.027,0.873-0.055,1.307-0.082c0.132-0.068,0.262-0.072,0.393,0.002l-0.005-0.004
				c0.114,0.098,0.292-0.043,0.394,0.102c0.312,0.072,0.623,0.143,0.936,0.215c0.284,0.129,0.632,0.094,0.869,0.344
				c0.05,0.018,0.099,0.033,0.147,0.051c0.239,0.066,0.437,0.213,0.64,0.348c0.045,0.018,0.087,0.033,0.131,0.049
				c0.15,0.063,0.304,0.125,0.418,0.242l-0.004-0.006c0.258,0.135,0.517,0.266,0.711,0.496c0.104,0.066,0.206,0.137,0.309,0.207
				c0.125,0.066,0.237,0.146,0.32,0.266c0.353,0.4,0.766,0.74,1.16,1.104c0.936,0.869,1.732,1.867,2.494,2.891
				c0.128,0.174,0.267,0.314,0.506,0.297c0.139,0.057,0.279,0.057,0.42,0c0.35-0.08,0.699-0.152,1.048-0.24
				c0.842-0.213,1.591-0.006,2.191,0.59c0.474,0.469,0.947,0.76,1.619,0.496c0.574-0.021,1.149-0.074,1.722,0.027l-0.008-0.006
				c0.231,0.1,0.489-0.047,0.715,0.084l-0.008-0.006c0.146,0.096,0.341-0.051,0.475,0.102c0.095,0.086,0.208,0.043,0.316,0.051
				c0.353,0.068,0.697,0.172,1.024,0.318l-0.005-0.002c0.129,0.064,0.276,0.08,0.396,0.162l-0.005-0.004
				c0.165,0.072,0.349,0.105,0.474,0.254c1.697,0.766,2.969,2.07,4.217,3.393c0.892,0.941,1.693,1.959,2.414,3.041
				c0.263,0.396,0.543,0.781,0.813,1.168c0.131,0.107,0.172,0.268,0.245,0.404l-0.005-0.008c0.275,0.49,0.408,1.025,0.484,1.576
				c0.127,0.266,0.283,0.467,0.6,0.555c0.912,0.256,1.71,0.021,2.432-0.537c0.914-0.705,1.729-1.51,2.396-2.463
				c0.772-1.104,1.769-1.973,2.876-2.74c0.859-0.596,1.752-1.129,2.669-1.629c0.366-0.199,0.756-0.355,1.142-0.525
				c0.695-0.307,1.403-0.58,2.101-0.889c0.702-0.309,1.442-0.521,2.155-0.803c1.232-0.484,2.516-0.721,3.832-0.816
				c0.135-0.059,0.287,0.008,0.422-0.059c0.136,0.033,0.274,0.033,0.408,0c0.162,0.076,0.34-0.01,0.5,0.064
				c0.881,0.088,1.744,0.301,2.577,0.559c1.242,0.385,2.33,1.09,3.326,1.939c1.041,0.887,1.802,1.982,2.493,3.148
				c0.482,0.809,0.722,1.697,1.037,2.564c0.176,0.486,0.184,0.982,0.306,1.467c0.195,0.775,0.464,1.539,0.485,2.352
				c0.072,0.188-0.018,0.391,0.06,0.58c0.101,1.371,0.078,2.752,0.074,4.125c0,0.543-0.133,1.08-0.074,1.627
				c-0.075,0.188,0.013,0.391-0.059,0.576c-0.052,0.674-0.134,1.346-0.39,1.982c-0.111,0.287-0.07,0.592-0.125,0.883
				c-0.162,0.848-0.367,1.709-0.677,2.49c-0.259,0.656-0.209,1.455-0.772,1.99c0.039,0.637-0.364,1.129-0.596,1.656
				c-0.527,1.188-1.051,2.385-1.789,3.473c-0.406,0.6-0.713,1.27-1.109,1.881c-0.551,0.846-1.223,1.607-1.719,2.494
				c-0.271,0.479-0.561,0.965-0.787,1.447c-0.166,0.355-0.338,0.766-0.461,1.166c-0.066,0.129-0.002,0.279-0.055,0.41
				c-0.042,0.125-0.087,0.244-0.128,0.365c-0.411,1.311-0.879,2.609-0.84,4.012c-0.075,0.16,0.006,0.338-0.06,0.496
				c-0.034,0.66-0.098,1.32,0.013,1.98c0.008,0.049-0.005,0.1-0.013,0.15c-0.019,0.129-0.043,0.291-0.152,0.332
				c-0.111,0.047-0.184-0.119-0.27-0.189c-0.209-0.182-0.354-0.391-0.371-0.688c-0.037-0.582-0.301-1.111-0.39-1.684
				c-0.112-0.797-0.112-1.584,0.064-2.375c0.096-0.422,0.166-0.852,0.247-1.275c0.089-0.209-0.021-0.439,0.064-0.648
				c0.32-1.404,0.701-2.787,1.389-4.066c0.342-0.635,0.691-1.27,0.998-1.912c0.349-0.73,0.662-1.488,0.992-2.23
				c0.674-1.518,1.264-3.063,1.762-4.641c0.091-0.291,0.195-0.582,0.293-0.871c0.074-0.129-0.008-0.285,0.066-0.418
				c0.135-0.438,0.271-0.875,0.406-1.313c0.077-0.158-0.012-0.336,0.063-0.492c0.063-0.488,0.199-0.955,0.334-1.428
				c0.154-0.547,0.209-1.115,0.153-1.689c0.07-0.131-0.004-0.285,0.063-0.418c0.046-0.707,0.035-1.418,0.003-2.125
				c-0.085-0.264,0.022-0.547-0.064-0.814c0.069-0.488-0.048-0.939-0.219-1.396c-0.354-0.939-0.656-1.9-1.13-2.789
				c-0.715-1.342-1.697-2.455-2.997-3.213c-0.853-0.5-1.791-0.861-2.853-0.775c-0.74,0.064-1.494-0.016-2.238,0.045
				c-0.129,0.07-0.284-0.01-0.413,0.064c-0.076-0.002-0.167-0.029-0.231,0c-0.681,0.32-1.429,0.43-2.129,0.701
				c-1.188,0.459-2.32,1.021-3.417,1.656c-1.317,0.764-2.62,1.561-3.759,2.59c-0.59,0.533-1.299,0.904-1.88,1.453
				c-0.604,0.568-1.276,1.068-1.896,1.623c-0.875,0.781-1.738,1.58-2.494,2.488c-0.992,1.195-2.057,2.326-2.982,3.584
				c-0.596,0.805-1.166,1.623-1.725,2.447c-0.864,1.285-1.686,2.611-2.416,3.98c-0.317,0.592-0.713,1.139-0.938,1.777
				c-0.088,0.127-0.051,0.324-0.22,0.408c-0.85,1.252-1.366,2.668-1.967,4.035c-0.946,2.148-1.742,4.359-2.485,6.588
				c-0.696,2.084-1.308,4.195-1.841,6.328c-0.418,1.676-0.797,3.361-1.108,5.061c-0.034,0.184,0.022,0.49-0.252,0.502
				c-0.269,0.01-0.242-0.277-0.298-0.473c-0.233-0.811-0.314-1.65-0.398-2.486c-0.058-0.129,0.012-0.279-0.057-0.41
				c-0.008-0.125-0.015-0.248-0.021-0.375c-0.069-0.211,0.023-0.439-0.057-0.652c-0.006-0.25-0.015-0.506-0.021-0.76
				c-0.041-0.494-0.041-0.99,0-1.486c-0.075-0.309,0.073-0.607,0.021-0.914c0.083-0.27-0.013-0.545,0.056-0.814
				c0.008-0.119,0.016-0.242,0.024-0.363c0.072-0.16-0.006-0.34,0.057-0.498c0.006-0.102,0.013-0.197,0.02-0.295
				c0.073-0.131-0.002-0.281,0.059-0.412c-0.001-0.369,0.126-0.723,0.177-1.084c0.073-0.129,0-0.279,0.058-0.408
				c0.068-0.643,0.193-1.275,0.42-1.883c-0.13-0.359,0.132-0.637,0.217-0.947c0.067-0.705,0.408-1.336,0.564-2.021
				c0.069-0.307,0.105-0.623,0.158-0.936c0.068-0.133-0.008-0.289,0.064-0.422c0.034-0.395,0.033-0.787-0.001-1.182
				c-0.079-0.186,0.019-0.391-0.063-0.578c-0.005-0.201-0.009-0.396-0.014-0.6c-0.079-0.156,0.014-0.338-0.064-0.494
				c-0.005-0.176-0.01-0.352-0.015-0.525c-0.087-0.238,0.024-0.494-0.064-0.73c-0.015-1.229-0.016-2.457-0.22-3.68
				c-0.164-0.984-0.378-1.967-0.347-2.977c-0.064-0.135,0.006-0.287-0.06-0.424c-0.198-0.814-0.295-1.664-0.51-2.463
				c-0.212-0.787-0.405-1.596-0.677-2.379c-0.499-1.424-1.004-2.842-1.646-4.215c-0.544-1.164-1.144-2.299-1.756-3.428
				c-0.452-0.842-0.947-1.654-1.476-2.438c-0.934-1.387-1.909-2.74-2.999-4.014c-0.752-0.883-1.416-1.852-2.249-2.654
				c-0.996-0.961-1.857-2.055-2.951-2.916c-0.439-0.344-0.799-0.779-1.222-1.145c-0.253-0.221-0.5-0.465-0.771-0.643
				c-0.826-0.539-1.468-1.295-2.283-1.842c-0.845-0.568-1.626-1.221-2.525-1.723c-0.638-0.357-1.392-0.449-1.959-0.928
				c-0.329-0.279-0.655-0.57-0.796-1.002c-0.095-0.225-0.156-0.457-0.083-0.701c-0.02-0.072-0.042-0.145-0.06-0.217
				C31.794,80.184,31.72,79.893,31.865,79.641z"/>
			<path fill="#FC9600" d="M59.066,70.522c-0.058,0.61-0.263,1.197-0.324,1.798c-0.086,0.855-0.425,1.627-0.695,2.412
				c-0.346,1.01-0.896,1.936-1.507,2.826c-0.762,1.111-1.88,1.666-3.056,2.166c-0.138,0.061-0.33,0.182-0.431,0.006
				c-0.09-0.154-0.031-0.344,0.139-0.473c0.669-0.521,1.118-1.24,1.469-1.967c0.266-0.555,0.626-1.125,0.632-1.791
				c0.074-0.133-0.01-0.287,0.067-0.418c0.131-0.723,0.29-1.43,0.281-2.18c-0.007-0.697-0.191-1.351-0.289-2.025
				c-0.06-0.415-0.035-0.839-0.178-1.246c-0.513-1.466-0.83-2.966-0.838-4.526c-0.052-0.89-0.052-1.779,0-2.668
				c0.017-0.684,0.131-1.357,0.248-2.031c-0.014-0.327-0.011-0.654,0.15-0.956c0.09-0.525,0.056-1.077,0.308-1.573
				c-0.04-0.309,0.045-0.592,0.177-0.865c0.067-0.309,0.271-0.584,0.231-0.919c0.154-0.161,0.164-0.398,0.3-0.569
				c0.028-0.447,0.301-0.792,0.527-1.142c0.646-1,1.288-2.006,2.009-2.95c0.354-0.461,0.769-0.888,1.144-1.341
				c0.69-0.83,1.507-1.532,2.321-2.231c1.125-0.973,2.356-1.794,3.67-2.49c0.606-0.321,1.215-0.691,1.865-0.877
				c0.924-0.264,1.788-0.756,2.79-0.75c0.286,0.001,0.576-0.125,0.858-0.215c0.763-0.239,1.563-0.179,2.346-0.275
				c0.161-0.058,0.334,0.018,0.492-0.056c0.287,0.035,0.557-0.089,0.842-0.092c0.128-0.073,0.283,0.007,0.415-0.064
				c0.149-0.006,0.298-0.01,0.448-0.015c0.13-0.072,0.285,0.008,0.414-0.063c0.561,0,1.115,0,1.676,0
				c0.133,0.067,0.285-0.004,0.419,0.059c1.11,0.134,2.241,0.152,3.332,0.356c0.962,0.181,1.937,0.415,2.872,0.774
				c0.548,0.213,1.125,0.394,1.645,0.656c1.072,0.54,2.151,1.099,2.967,2.03c0.183,0.207,0.195,0.516,0.016,0.679
				c-0.417,0.379-0.544,0.917-0.852,1.354c-0.662,0.94-1.199,1.964-1.848,2.92c-0.262,0.387-0.512,0.802-0.732,1.225
				c-0.201,0.388-0.465,0.482-0.875,0.324c-0.689-0.265-1.396-0.31-2.119-0.242c-0.137,0.063-0.289-0.007-0.424,0.061
				c-0.297-0.027-0.592-0.016-0.888,0.063c-0.608,0.16-1.245,0.216-1.854,0.357c-0.818,0.187-1.58,0.561-2.188,1.177
				c-0.271,0.279-0.598,0.527-0.767,0.877c-0.287,0.581-0.658,1.136-0.646,1.822c-0.05,0.153-0.044,0.307-0.002,0.46
				c0.055,0.392,0.391,0.475,0.678,0.601c0.357,0.159,0.771,0.097,1.133,0.234c0.879,0.328,1.758,0.654,2.587,1.098
				c0.161,0.109,0.347,0.182,0.478,0.331c1.721,1.076,3,2.565,3.887,4.366c0.392,0.788,0.756,1.623,0.674,2.558
				c-0.021,0.263,0.17,0.485,0.228,0.735c0.251,1.078,0.668,2.094,1.138,3.087c0.588,1.25,1.242,2.466,1.94,3.659
				c0.104,0.182,0.197,0.357,0.258,0.561c0.058,0.189,0.107,0.404-0.04,0.51c-0.144,0.104-0.365,0.051-0.549-0.021
				c-0.637-0.256-1.265-0.527-1.912-0.748c-0.402-0.139-0.76-0.352-1.135-0.533c-0.193-0.096-0.275-0.273-0.191-0.521
				c0.069-0.215,0.141-0.439,0.121-0.678c0.047-0.229,0.055-0.457,0-0.687c-0.123-0.974-0.26-1.956-0.816-2.792
				c-0.194-0.292-0.481-0.544-0.793-0.742c-0.442-0.28-0.908-0.516-1.398-0.708c-0.521-0.204-1.048-0.229-1.551-0.024
				c-0.477,0.193-0.969,0.355-1.405,0.65c-0.483,0.326-0.532,0.732-0.089,1.103c0.479,0.4,1.002,0.728,1.553,1.016
				c0.426,0.223,0.897,0.088,1.344,0.182c0.43,0.092,0.871,0.139,1.304,0.23c0.373,0.078,0.499,0.352,0.421,0.652
				c-0.506,1.91-0.413,3.859-0.391,5.797c0.014,1.234,0.125,2.473,0.328,3.691c0.088,0.209-0.021,0.439,0.068,0.648
				c0.003,0.176,0.01,0.354,0.014,0.531c0.077,0.188-0.017,0.391,0.063,0.576c-0.005,0.023-0.014,0.045-0.018,0.066
				c0,0.01,0.013,0.021,0.018,0.029c-0.051,0.23-0.051,0.459,0,0.688c-0.182,0.568-0.236,0.57-0.82,0.369
				c-1.617-0.559-2.975-1.553-4.382-2.488c-1.155-0.768-2.12-1.766-3.269-2.537c-0.447-0.301-0.823-0.705-1.229-1.066
				c-0.34-0.303-0.725-0.357-1.143-0.205c-0.35,0.125-0.709,0.158-1.073,0.154c-0.169-0.002-0.341-0.033-0.49,0.086
				c-0.258,0.098-0.524,0.129-0.802,0.119c-0.35-0.01-0.695,0.029-1.039,0.107c-0.966,0.193-1.943,0.254-2.93,0.242
				c-0.295-0.004-0.594,0.059-0.887,0.092c-0.136,0.064-0.289-0.006-0.426,0.061c-0.115,0-0.232,0-0.35,0
				c-0.145,0-0.317,0.027-0.371-0.143c-0.045-0.146-0.07-0.336,0.076-0.438c0.201-0.135,0.252-0.336,0.27-0.533
				c0.047-0.533,0.414-0.977,0.422-1.52c0.065-0.133-0.01-0.285,0.06-0.42c0.006-0.076,0.008-0.154,0.012-0.23
				c0.065-0.641,0.054-1.281,0.005-1.922c-0.04-1.262-0.381-2.451-0.867-3.606c-0.039-0.097-0.054-0.196-0.086-0.292
				c-0.08-0.337,0.002-0.685-0.063-1.026c-0.006-0.801,0.023-1.6,0.083-2.397c0.024-0.312,0.077-0.604,0.194-0.898
				c0.188-0.464,0.354-0.937,0.506-1.413c0.143-0.44-0.08-0.636-0.688-0.637c-0.439-0.051-0.878-0.052-1.318,0
				c-1.605,0.083-3.317,1.422-3.778,2.958c-0.025,0.085-0.052,0.173-0.052,0.264c-0.001,0.989,0.001,1.979,0.002,2.968
				C59.039,69.98,59.15,70.26,59.066,70.522z"/>
			<path fill="#FC9600" d="M41.38,40.664c0.388-0.079,0.77,0.039,1.156,0.018c0.131,0.071,0.282-0.002,0.415,0.059
				c0.352,0.018,0.657,0.209,1,0.257c0.172,0.049,0.344,0.053,0.515-0.001c0.466-0.094,0.781-0.416,1.089-0.74
				c0.137-0.146,0.124-0.333,0-0.49c-0.44-0.55-0.883-1.1-1.325-1.649c-0.042-0.051-0.11-0.083-0.136-0.139
				c-0.083-0.178-0.288-0.34-0.159-0.562c0.114-0.193,0.333-0.103,0.502-0.105c0.99-0.011,1.981-0.006,2.972-0.006
				c0.316,0.092,0.649-0.028,0.965,0.068c0.054,0.035,0.112,0.065,0.165,0.103c0.493,0.328,0.56,0.323,1.061-0.018
				c0.736-0.5,1.441-1.043,2.17-1.551c1.699-1.18,3.362-2.407,5.042-3.613c1.203-0.862,2.405-1.726,3.608-2.584
				c1.176-0.839,2.357-1.669,3.528-2.512c0.997-0.716,1.972-1.462,2.979-2.152c1.043-0.712,2.059-1.457,3.092-2.181
				c1.326-0.932,2.603-1.94,3.955-2.832c0.855-0.563,1.668-1.179,2.503-1.765c1.045-0.734,2.091-1.469,3.122-2.219
				c1.175-0.852,2.365-1.683,3.544-2.532c0.888-0.639,1.741-1.329,2.653-1.927c0.607-0.399,1.225-0.786,1.793-1.234
				c1.18-0.93,2.476-1.69,3.647-2.636c0.562-0.452,1.194-0.825,1.786-1.25c0.777-0.556,1.52-1.173,2.376-1.61
				c0.261-0.133,0.546-0.219,0.819-0.328c0.152-0.092,0.313-0.17,0.484-0.221c0.23-0.105,0.459-0.209,0.69-0.314
				c0.168-0.054,0.336-0.102,0.506-0.153c0.415-0.205,0.901-0.229,1.301-0.477c0.132-0.049,0.267-0.1,0.39,0.029
				c-0.142,0.312-0.373,0.544-0.617,0.778c-0.656,0.634-1.313,1.267-1.941,1.928c-0.469,0.494-1.027,0.864-1.564,1.274
				c-0.938,0.717-1.933,1.353-2.877,2.059c-1.264,0.944-2.563,1.839-3.846,2.757c-1.113,0.796-2.216,1.612-3.343,2.388
				c-1.035,0.713-2.022,1.495-3.072,2.18c-0.899,0.593-1.731,1.276-2.643,1.853c-0.95,0.603-1.819,1.327-2.736,1.986
				c-0.336,0.239-0.7,0.437-1.028,0.69c-0.871,0.668-1.727,1.367-2.653,1.945c-0.906,0.565-1.714,1.252-2.595,1.847
				c-1.395,0.941-2.742,1.954-4.113,2.931c-1.006,0.712-2.023,1.405-3.024,2.123c-0.864,0.616-1.685,1.305-2.585,1.867
				c-0.816,0.507-1.569,1.099-2.341,1.655c-0.859,0.62-1.755,1.192-2.578,1.868c-0.717,0.591-1.532,1.063-2.294,1.601
				c-1.023,0.726-2.045,1.454-3.047,2.209c-0.539,0.405-0.528,0.495-0.171,1.049c0.028,0.044,0.047,0.094,0.069,0.142
				c0.04,0.126,0.032,0.255,0.005,0.384c-0.056,0.331-0.335,0.581-0.338,0.931c-0.076,0.126,0.002,0.277-0.061,0.407
				c-0.099,0.524-0.259,1.027-0.465,1.519c-0.046,0.106-0.083,0.221-0.098,0.335c-0.023,0.163,0.015,0.35-0.22,0.396
				c-0.248,0.054-0.312-0.128-0.436-0.287c-0.434-0.559-0.905-1.086-1.245-1.714c-0.08-0.146-0.265-0.202-0.443-0.172
				c-0.143,0.023-0.199,0.132-0.182,0.258c0.163,1.149-0.69,1.721-1.372,2.373c-0.914,0.876-1.83,1.748-2.676,2.69
				c-0.547,0.612-1.124,1.199-1.654,1.826c-1.11,1.308-2.273,2.567-3.333,3.921c-0.929,1.184-1.874,2.356-2.789,3.55
				c-0.688,0.896-1.326,1.827-2.01,2.725c-1.603,2.104-3.045,4.316-4.55,6.49c-0.463,0.668-0.888,1.365-1.342,2.038
				c-0.429,0.631-0.83,1.31-1.237,1.965c-0.344,0.554-0.645,1.146-1.037,1.678c-0.167,0.227-0.291,0.484-0.428,0.73
				c-0.088,0.161-0.195,0.195-0.343,0.084c-0.068-0.182-0.051-0.367-0.008-0.55c0.159-1.142,0.439-2.254,0.813-3.347
				c0.397-1.155,0.891-2.269,1.384-3.381c0.208-0.467,0.423-0.949,0.712-1.391c0.219-0.334,0.37-0.716,0.567-1.07
				c0.473-0.847,0.936-1.699,1.454-2.524c0.483-0.767,0.945-1.547,1.446-2.302c0.481-0.727,0.992-1.432,1.485-2.147
				c0.547-0.788,1.121-1.557,1.667-2.346c0.225-0.326,0.446-0.668,0.73-0.938c0.313-0.294,0.299-0.637,0.304-1.001
				c0.003-0.232-0.154-0.37-0.325-0.445c-0.185-0.083-0.355,0.034-0.481,0.179c-0.265,0.307-0.437,0.674-0.649,1.015
				c-0.224,0.362-0.481,0.705-0.724,1.056c-0.235,0.337-0.513,0.339-0.719-0.005c-0.657-1.104-1.236-2.251-1.918-3.338
				c-0.223-0.357-0.056-0.649,0.364-0.706c0.192-0.026,0.384-0.064,0.576-0.098c0.136-0.065,0.289,0.001,0.426-0.059
				c0.314,0,0.631-0.022,0.942,0.003c0.484,0.039,0.836-0.237,1.248-0.414c1.053-0.456,1.375-1.389,1.706-2.34
				c0.087-0.123-0.008-0.276,0.068-0.401c0.209-0.616,0.312-1.256,0.452-1.887c0.159-0.713,0.521-1.424,1.226-1.841
				c0.314-0.188,0.542-0.508,0.923-0.595c0.432-0.325,0.939-0.493,1.428-0.694l-0.008,0.004c0.176-0.102,0.364-0.179,0.556-0.249
				c0.128-0.028,0.254-0.057,0.383-0.085C40.696,40.659,41.031,40.585,41.38,40.664z"/>
			<path fill="#FC9600" d="M25.209,82.041c0.051-0.137-0.111-0.367,0.101-0.408c0.212-0.043,0.348,0.168,0.428,0.338
				c0.484,1.051,1.114,2.02,1.685,3.02c0.541,0.943,1.159,1.836,1.765,2.738c0.581,0.859,1.181,1.707,1.819,2.518
				c0.779,0.988,1.499,2.027,2.393,2.922c0.647,0.646,1.261,1.322,1.91,1.969c0.551,0.551,1.173,1.02,1.782,1.51
				c0.915,0.729,1.863,1.404,2.907,1.924c0.625,0.313,1.248,0.648,1.947,0.822c0.497,0.121,0.959,0.361,1.48,0.428
				c0.442,0.055,0.882-0.01,1.326,0.074c0.291,0.057,0.409,0.215,0.454,0.455c0.089,0.5,0.298,0.961,0.426,1.445
				c0.07,0.127-0.021,0.277,0.064,0.402c-0.034,0.365,0,0.732,0.155,1.066c0.346,0.752,0.217,1.59,0.468,2.354
				c0.29,0.883,0.257,1.824,0.491,2.703c0.372,1.396,0.365,2.855,0.783,4.236c0.075,0.129-0.007,0.285,0.064,0.42
				c0.007,0.068,0.013,0.137,0.02,0.209c0.076,0.291-0.028,0.594,0.059,0.887c-0.009,0.563,0.159,1.102,0.244,1.648
				c0.056,0.359,0.109,0.721,0.164,1.076c0.09,0.477-0.028,0.961,0.064,1.438c0.008,0.752,0.012,1.504,0.02,2.256
				c0.043,0.184,0.043,0.363,0,0.545c-0.027,0.088-0.047,0.176-0.081,0.26c-0.105,0.256-0.197,0.289-0.403,0.049
				c-0.439-0.516-0.73-1.117-1.071-1.689c-0.82-1.371-1.53-2.795-2.072-4.305c-0.055-0.154-0.158-0.291-0.238-0.439
				c-0.12-0.18-0.186-0.389-0.301-0.572c0.043-0.184-0.088-0.34-0.077-0.521c-0.114-0.152,0.006-0.342-0.082-0.498
				c-0.002-0.045-0.007-0.088-0.012-0.133c-0.083-0.16,0.012-0.338-0.066-0.496c-0.113-1.205-0.27-2.371-0.894-3.469
				c-0.655-1.146-1.4-2.229-2.164-3.291c-0.649-0.906-1.48-1.641-2.468-2.189c-0.503-0.277-0.965-0.607-1.568-0.658
				c-0.152-0.01-0.299-0.188-0.43-0.313c-1.073-1.006-1.957-2.176-2.936-3.266c-0.542-0.6-1.066-1.209-1.561-1.846
				c-1.326-1.711-2.569-3.477-3.602-5.391c-0.727-1.354-1.259-2.775-1.75-4.223c-0.175-0.209-0.188-0.467-0.224-0.717l0.007,0.006
				c-0.124-0.104,0.009-0.27-0.093-0.379c-0.106-0.088-0.058-0.213-0.076-0.322c-0.1-0.107,0.016-0.264-0.083-0.371
				c-0.105-0.098-0.063-0.219-0.065-0.334c-0.115-0.102,0.01-0.268-0.091-0.373c-0.079-0.068-0.069-0.168-0.086-0.26
				c-0.052-0.18-0.021-0.369-0.066-0.549c0-0.025,0.001-0.053,0.001-0.078c-0.083-0.264-0.088-0.543-0.155-0.809
				c-0.101-0.166-0.042-0.355-0.091-0.529c-0.126-0.273-0.084-0.582-0.148-0.869l0.002,0.006
				C25.185,82.336,25.28,82.174,25.209,82.041z"/>
			<path fill="#FCFCFC" d="M54.339,62.436c0,0.89,0,1.779,0,2.667c-0.134-0.159-0.066-0.346-0.069-0.521
				c-0.008-0.593-0.005-1.187-0.001-1.78C54.268,62.678,54.226,62.541,54.339,62.436z"/>
			<path fill="#FCFCFC" d="M39.431,41.079c-0.476,0.232-0.952,0.464-1.427,0.695C38.403,41.381,38.896,41.187,39.431,41.079z"/>
			<path fill="#FDFDFD" d="M69.316,78.607c0.597-0.221,1.231-0.094,1.84-0.225c-0.334,0.271-0.751,0.145-1.12,0.186
				C69.806,78.596,69.56,78.684,69.316,78.607z"/>
			<path fill="#FDFDFD" d="M69.187,97.801c-0.154-0.529-0.274-1.066-0.486-1.58C69.063,96.684,69.179,97.229,69.187,97.801z"/>
			<path fill="#FDFDFD" d="M65.195,73.795c0.104,0.645,0.114,1.283-0.007,1.924C65.19,75.078,65.193,74.436,65.195,73.795z"/>
			<path fill="#FDFDFD" d="M57.641,87.273c-0.574-0.01-1.148-0.02-1.723-0.029C56.494,87.158,57.069,87.102,57.641,87.273z"/>
			<path fill="#FCFCFC" d="M54.646,135.34c0,0.494,0,0.99,0,1.486C54.535,136.33,54.538,135.834,54.646,135.34z"/>
			<path fill="#FCFCFC" d="M54.735,59.449c-0.049,0.318-0.1,0.638-0.149,0.956C54.413,60.052,54.523,59.743,54.735,59.449z"/>
			<path fill="#FCFCFC" d="M48.21,118.236c-0.114-0.475-0.03-0.961-0.065-1.436C48.297,117.27,48.185,117.756,48.21,118.236z"/>
			<path fill="#FCFCFC" d="M41.23,67.461c0.046-0.378,0.097-0.754,0.227-1.114C41.481,66.739,41.425,67.114,41.23,67.461z"/>
			<path fill="#FCFCFC" d="M55.753,127.717c-0.045,0.322-0.242,0.609-0.217,0.947C55.318,128.283,55.589,128.014,55.753,127.717z"/>
			<path fill="#FDFDFD" d="M62.958,63.528c0.438-0.081,0.877-0.097,1.316,0C63.837,63.525,63.396,63.528,62.958,63.528z"/>
			<path fill="#FDFDFD" d="M60.156,87.816c-0.342-0.107-0.683-0.215-1.025-0.322C59.508,87.484,59.851,87.594,60.156,87.816z"/>
			<path fill="#FCFCFC" d="M41.767,64.269c-0.092-0.414-0.07-0.823,0-1.235C41.767,63.446,41.767,63.855,41.767,64.269z"/>
			<path fill="#FDFDFD" d="M64.177,68.871c0.08,0.339,0.045,0.683,0.064,1.026C64.111,69.562,64.157,69.215,64.177,68.871z"/>
			<path fill="#FCFCFC" d="M43.807,80.459c-0.29-0.115-0.578-0.23-0.868-0.344C43.261,80.146,43.595,80.148,43.807,80.459z"/>
			<path fill="#FCFCFC" d="M41.38,40.664c-0.34,0.029-0.68,0.058-1.018,0.087C40.687,40.547,41.028,40.539,41.38,40.664z"/>
			<path fill="#FCFCFC" d="M41.767,62.466c-0.066-0.412-0.065-0.825,0-1.237C41.767,61.641,41.767,62.054,41.767,62.466z"/>
			<path fill="#FCFCFC" d="M45.851,81.641c-0.248-0.152-0.502-0.293-0.711-0.496C45.447,81.203,45.706,81.342,45.851,81.641z"/>
			<path fill="#FCFCFC" d="M55.219,57.013c-0.059,0.287-0.118,0.576-0.177,0.863C54.906,57.548,55.027,57.273,55.219,57.013z"/>
			<path fill="#FCFCFC" d="M44.594,80.859c-0.228-0.088-0.448-0.195-0.639-0.352C44.236,80.5,44.443,80.629,44.594,80.859z"/>
			<path fill="#FCFCFC" d="M25.282,82.461c0.119,0.277,0.112,0.576,0.148,0.869C25.226,83.066,25.282,82.76,25.282,82.461z"/>
			<path fill="#FCFCFC" d="M25.521,83.855c0.134,0.254,0.127,0.537,0.155,0.813C25.491,84.42,25.52,84.139,25.521,83.855z"/>
			<path fill="#FCFCFC" d="M48.373,37.371c-0.321-0.026-0.648,0.036-0.964-0.07C47.73,37.33,48.063,37.209,48.373,37.371z"/>
			<path fill="#FCFCFC" d="M26.229,87.326c0.076,0.24,0.151,0.479,0.226,0.717C26.177,87.867,26.216,87.594,26.229,87.326z"/>
			<path fill="#FCFCFC" d="M47.738,114.07c-0.1-0.287-0.022-0.592-0.059-0.885C47.815,113.473,47.721,113.775,47.738,114.07z"/>
			<path fill="#FCFCFC" d="M44.06,114.338c0.191,0.145,0.234,0.363,0.301,0.572C44.172,114.768,44.091,114.564,44.06,114.338z"/>
			<path fill="#FCFCFC" d="M39.915,79.883c-0.302,0.1-0.605,0.104-0.908-0.004C39.312,79.883,39.614,79.883,39.915,79.883z"/>
			<path fill="#FCFCFC" d="M31.865,79.641c-0.055,0.268-0.036,0.547-0.138,0.807C31.739,80.174,31.637,79.879,31.865,79.641z"/>
			<path fill="#FCFCFC" d="M55.75,55.523c-0.081,0.201-0.085,0.441-0.301,0.569C55.537,55.895,55.533,55.653,55.75,55.523z"/>
			<path fill="#FDFDFD" d="M80.497,60.179c-0.193-0.059-0.35-0.176-0.478-0.332C80.238,59.873,80.417,59.957,80.497,60.179z"/>
			<path fill="#FCFCFC" d="M63.152,119.469c0.11-0.115,0.051-0.326,0.221-0.408C63.339,119.215,63.487,119.473,63.152,119.469z"/>
			<path fill="#FCFCFC" d="M39.808,62.75c-0.026,0.208-0.054,0.418-0.079,0.627C39.583,63.145,39.636,62.938,39.808,62.75z"/>
			<path fill="#FCFCFC" d="M97.087,104.824c0.088,0.268,0.053,0.543,0.064,0.814C97.003,105.379,97.108,105.098,97.087,104.824z"/>
			<path fill="#FDFDFD" d="M59.066,70.522c0.016-0.269-0.011-0.542,0.063-0.809C59.107,69.986,59.213,70.265,59.066,70.522z"/>
			<path fill="#FCFCFC" d="M41.535,59.538c-0.097-0.228-0.139-0.469-0.165-0.714C41.568,59.028,41.542,59.286,41.535,59.538z"/>
			<path fill="#FCFCFC" d="M31.787,80.662c0.028,0.234,0.054,0.469,0.081,0.705C31.678,81.148,31.669,80.914,31.787,80.662z"/>
			<path fill="#FCFCFC" d="M54.722,133.609c0.008,0.273,0.05,0.549-0.056,0.813C54.682,134.15,54.589,133.873,54.722,133.609z"/>
			<path fill="#FCFCFC" d="M39.979,40.835c-0.168,0.119-0.349,0.216-0.555,0.248C39.57,40.913,39.755,40.827,39.979,40.835z"/>
			<path fill="#FCFCFC" d="M56.315,120.227c0.076,0.24,0.05,0.488,0.066,0.73C56.237,120.727,56.333,120.473,56.315,120.227z"/>
			<path fill="#FDFDFD" d="M58.349,87.35c-0.241-0.01-0.485,0.023-0.715-0.082C57.872,87.293,58.127,87.17,58.349,87.35z"/>
			<path fill="#FCFCFC" d="M25.674,84.744c0.092,0.176,0.085,0.361,0.067,0.549C25.663,85.117,25.578,84.941,25.674,84.744z"/>
			<path fill="#FCFCFC" d="M40.217,70.837c0.072-0.187,0.145-0.378,0.216-0.567C40.455,70.495,40.418,70.697,40.217,70.837z"/>
			<path fill="#FDFDFD" d="M83.482,82.176c-0.082-0.211-0.058-0.432-0.065-0.646C83.562,81.729,83.464,81.957,83.482,82.176z"/>
			<path fill="#FDFDFD" d="M84.911,72.464c0.079,0.229,0.09,0.46,0,0.688C84.911,72.924,84.911,72.693,84.911,72.464z"/>
			<path fill="#FCFCFC" d="M90.632,127.246c-0.023,0.215,0.033,0.439-0.063,0.646C90.585,127.678,90.487,127.447,90.632,127.246z"/>
			<path fill="#FDFDFD" d="M83.56,84.068c-0.063-0.23-0.072-0.459,0-0.689C83.56,83.609,83.56,83.838,83.56,84.068z"/>
			<path fill="#FDFDFD" d="M61.015,88.223c-0.158-0.084-0.315-0.168-0.473-0.25C60.744,87.971,60.929,88.006,61.015,88.223z"/>
			<path fill="#FEFEFE" d="M96.702,4.307c-0.143,0.116-0.307,0.185-0.484,0.223C96.333,4.353,96.503,4.295,96.702,4.307z"/>
			<path fill="#FCFCFC" d="M54.667,137.586c0.096,0.213,0.064,0.436,0.057,0.654C54.593,138.033,54.68,137.807,54.667,137.586z"/>
			<path fill="#FCFCFC" d="M100.999,100.564c-0.076-0.186-0.063-0.383-0.06-0.576C101.07,100.168,100.986,100.373,100.999,100.564z"
				/>
			<path fill="#FDFDFD" d="M83.56,83.283c-0.078-0.186-0.051-0.385-0.063-0.578C83.634,82.885,83.546,83.092,83.56,83.283z"/>
			<path fill="#FCFCFC" d="M24.327,72.099c0.002,0.183,0.006,0.364,0.008,0.546C24.206,72.468,24.219,72.283,24.327,72.099z"/>
			<path fill="#FCFCFC" d="M56.473,122.582c0.076,0.186,0.054,0.383,0.063,0.576C56.398,122.979,56.488,122.773,56.473,122.582z"/>
			<path fill="#FEFEFE" d="M97.899,3.843c-0.145,0.135-0.328,0.14-0.506,0.15C97.538,3.868,97.708,3.823,97.899,3.843z"/>
			<path fill="#FCFCFC" d="M45.145,81.146c-0.138-0.08-0.278-0.16-0.418-0.242C44.91,80.912,45.071,80.955,45.145,81.146z"/>
			<path fill="#FDFDFD" d="M68.706,96.23c-0.121-0.109-0.174-0.262-0.246-0.402C68.652,95.895,68.701,96.051,68.706,96.23z"/>
			<path fill="#FCFCFC" d="M48.229,121.035c0-0.182,0-0.359,0-0.545C48.333,120.676,48.333,120.854,48.229,121.035z"/>
			<path fill="#FCFCFC" d="M100.941,106.896c-0.002-0.195-0.017-0.393,0.058-0.578C100.987,106.514,101.068,106.717,100.941,106.896
				z"/>
			<path fill="#FCFCFC" d="M41.377,58.83c-0.08-0.121-0.135-0.254-0.143-0.401C41.41,58.517,41.384,58.677,41.377,58.83z"/>
			<path fill="#FCFCFC" d="M43.904,113.316c0.11,0.152,0.083,0.326,0.081,0.498C43.824,113.668,43.92,113.482,43.904,113.316z"/>
			<path fill="#FDFDFD" d="M60.548,87.975c-0.146-0.02-0.283-0.063-0.396-0.162C60.31,87.805,60.451,87.834,60.548,87.975z"/>
			<path fill="#FDFDFD" d="M73.773,43.197c-0.164,0.017-0.327,0.037-0.492,0.053C73.433,43.134,73.608,43.206,73.773,43.197z"/>
			<path fill="#FDFDFD" d="M58.815,87.445c-0.154-0.053-0.329-0.002-0.474-0.102C58.5,87.369,58.692,87.252,58.815,87.445z"/>
			<path fill="#FDFDFD" d="M90.716,87.957c-0.17-0.004-0.338,0.002-0.5-0.063C90.384,87.908,90.563,87.828,90.716,87.957z"/>
			<path fill="#FCFCFC" d="M44.466,40.995c-0.171,0.1-0.343,0.104-0.515,0.001C44.12,40.997,44.294,40.995,44.466,40.995z"/>
			<path fill="#FCFCFC" d="M56.395,121.484c0.072,0.16,0.059,0.328,0.065,0.496C56.326,121.83,56.406,121.652,56.395,121.484z"/>
			<path fill="#FCFCFC" d="M43.825,112.686c0.084,0.156,0.05,0.332,0.065,0.496C43.754,113.031,43.838,112.854,43.825,112.686z"/>
			<path fill="#FCFCFC" d="M46.479,82.107c-0.106-0.088-0.213-0.176-0.32-0.266C46.338,81.846,46.438,81.943,46.479,82.107z"/>
			<path fill="#FCFCFC" d="M54.802,132.748c0.01,0.168,0.028,0.338-0.057,0.496C54.756,133.078,54.68,132.9,54.802,132.748z"/>
			<path fill="#FCFCFC" d="M41.688,60.417c-0.021-0.165-0.042-0.331-0.064-0.496C41.756,60.074,41.677,60.251,41.688,60.417z"/>
			<path fill="#FCFCFC" d="M96.599,111.301c-0.021,0.164,0.021,0.336-0.063,0.492C96.548,111.627,96.47,111.451,96.599,111.301z"/>
			<path fill="#FCFCFC" d="M91.435,131.641c-0.002-0.168-0.008-0.336,0.06-0.494C91.483,131.313,91.56,131.488,91.435,131.641z"/>
			<path fill="#FCFCFC" d="M47.659,112.975c-0.072-0.133-0.059-0.279-0.064-0.42C47.719,112.682,47.652,112.832,47.659,112.975z"/>
			<path fill="#FCFCFC" d="M92.462,126.77c0.023-0.137-0.027-0.285,0.055-0.412C92.509,126.498,92.57,126.643,92.462,126.77z"/>
			<path fill="#FDFDFD" d="M89.806,87.895c-0.137,0.063-0.281,0.059-0.422,0.061C89.513,87.838,89.664,87.902,89.806,87.895z"/>
			<path fill="#FCFCFC" d="M26.142,86.955c0.118,0.104,0.097,0.244,0.093,0.377C26.081,87.236,26.164,87.082,26.142,86.955z"/>
			<path fill="#FDFDFD" d="M75.623,57.915c-0.114-0.155-0.073-0.307,0.001-0.46C75.624,57.608,75.623,57.761,75.623,57.915z"/>
			<path fill="#FCFCFC" d="M51.059,86.398c-0.142,0.082-0.281,0.078-0.42,0C50.777,86.398,50.918,86.398,51.059,86.398z"/>
			<path fill="#FDFDFD" d="M81.968,53.157c0.135-0.062,0.275-0.066,0.422-0.06C82.261,53.215,82.109,53.148,81.968,53.157z"/>
			<path fill="#FCFCFC" d="M31.441,49.248c-0.129,0.113-0.285,0.047-0.426,0.059C31.145,49.186,31.297,49.252,31.441,49.248z"/>
			<path fill="#FCFCFC" d="M35.405,46.096c-0.015,0.135,0.024,0.278-0.07,0.402C35.349,46.362,35.282,46.214,35.405,46.096z"/>
			<path fill="#FCFCFC" d="M25.985,86.26c0.101,0.107,0.085,0.24,0.083,0.371C25.934,86.531,26.002,86.387,25.985,86.26z"/>
			<path fill="#FDFDFD" d="M75.029,43.037c-0.132,0.07-0.272,0.064-0.415,0.064C74.736,42.979,74.888,43.045,75.029,43.037z"/>
			<path fill="#FCFCFC" d="M25.827,85.551c0.104,0.107,0.09,0.242,0.09,0.375C25.774,85.83,25.847,85.68,25.827,85.551z"/>
			<path fill="#FCFCFC" d="M25.209,82.041c0.098,0.129,0.052,0.281,0.077,0.426C25.136,82.346,25.218,82.184,25.209,82.041z"/>
			<path fill="#FDFDFD" d="M77.986,43.02c-0.142-0.001-0.285,0.008-0.42-0.059C77.712,42.968,77.861,42.902,77.986,43.02z"/>
			<path fill="#FDFDFD" d="M75.895,42.959c-0.13,0.063-0.274,0.066-0.417,0.064C75.601,42.9,75.755,42.968,75.895,42.959z"/>
			<path fill="#FCFCFC" d="M42.004,79.9c-0.132-0.035-0.262-0.066-0.394-0.1C41.746,79.818,41.909,79.723,42.004,79.9z"/>
			<path fill="#FCFCFC" d="M50.193,42.243c0.012-0.137-0.021-0.281,0.061-0.407C50.245,41.972,50.308,42.12,50.193,42.243z"/>
			<path fill="#FCFCFC" d="M41.617,79.805c-0.131,0-0.263,0-0.393,0C41.354,79.68,41.486,79.676,41.617,79.805z"/>
			<path fill="#FDFDFD" d="M65.074,79.002c0.132-0.07,0.279-0.059,0.424-0.063C65.371,79.063,65.218,78.994,65.074,79.002z"/>
			<path fill="#FCFCFC" d="M42.95,40.741c-0.14-0.002-0.284,0.003-0.415-0.06C42.677,40.688,42.824,40.625,42.95,40.741z"/>
			<path fill="#FCFCFC" d="M50.592,40.905c0-0.129-0.002-0.257-0.005-0.384C50.685,40.647,50.681,40.776,50.592,40.905z"/>
			<path fill="#FDFDFD" d="M65.177,75.949c-0.006,0.143,0.055,0.293-0.062,0.42C65.122,76.227,65.054,76.072,65.177,75.949z"/>
			<path fill="#FCFCFC" d="M55.36,75.082c-0.002,0.145,0.001,0.287-0.066,0.416C55.301,75.359,55.235,75.207,55.36,75.082z"/>
			<path fill="#FCFCFC" d="M54.745,138.613c0.084,0.129,0.069,0.271,0.057,0.412C54.69,138.898,54.751,138.754,54.745,138.613z"/>
			<path fill="#FDFDFD" d="M99.589,3.394c-0.125-0.088-0.262-0.008-0.391-0.028C99.339,3.25,99.47,3.218,99.589,3.394z"/>
			<path fill="#FCFCFC" d="M55.689,113.152c0.086,0.129,0.062,0.277,0.06,0.42C55.63,113.447,55.694,113.295,55.689,113.152z"/>
			<path fill="#FCFCFC" d="M54.882,132.039c0.009,0.143,0.017,0.285-0.059,0.412C54.829,132.311,54.767,132.162,54.882,132.039z"/>
			<path fill="#FCFCFC" d="M96.132,113.105c-0.018,0.139,0.023,0.289-0.064,0.418C96.074,113.383,96.007,113.229,96.132,113.105z"/>
			<path fill="#FCFCFC" d="M97.15,107.766c0.001,0.143-0.003,0.285-0.063,0.418C97.093,108.039,97.028,107.891,97.15,107.766z"/>
			<path fill="#FCFCFC" d="M56.537,124.34c0.002,0.145,0.009,0.287-0.064,0.424C56.481,124.619,56.414,124.467,56.537,124.34z"/>
			<path fill="#FCFCFC" d="M39.883,62.201c-0.003,0.141,0,0.284-0.064,0.418C39.825,62.476,39.759,62.325,39.883,62.201z"/>
			<path fill="#FCFCFC" d="M45.699,102.195c-0.113-0.121-0.06-0.266-0.064-0.402C45.751,101.914,45.688,102.061,45.699,102.195z"/>
			<path fill="#FCFCFC" d="M87.239,96.758c0.13-0.064,0.27-0.068,0.411-0.063C87.527,96.813,87.38,96.75,87.239,96.758z"/>
			<path fill="#FCFCFC" d="M40.354,59.292c-0.003,0.144,0.005,0.288-0.063,0.421C40.298,59.573,40.231,59.417,40.354,59.292z"/>
			<path fill="#FCFCFC" d="M55.115,130.549c0.006,0.137,0.024,0.279-0.057,0.404C55.066,130.816,55.005,130.67,55.115,130.549z"/>
		</g>
	</g>
</g>
<g id="图层_3">
</g>
</svg>
